Genre:Horror
Language:English
 
http://www.imdb.com/title/tt1912981/

Source:1080p.BluRay.x264.aAF Thanks!

Format : MPEG-4
Format profile : Base Media
Codec ID : isom
File size : 2.04 GiB
Duration : 1h 25mn
Overall bit rate : 3 404 Kbps

Video
ID : 1
Format : AVC
Format/Info : Advanced Video Codec
Format profile : High@L5.1
Format settings, CABAC : Yes
Format settings, ReFrames : 3 frames
Format settings, GOP : N=1
Codec ID : avc1
Codec ID/Info : Advanced Video Coding
Duration : 1h 25mn
Bit rate mode : Variable
Bit rate : 3 000 Kbps
Maximum bit rate : 14.6 Mbps
Width : 1 280 pixels
Height : 720 pixels
Display aspect ratio : 16:9
Frame rate mode : Constant
Frame rate : 23.976 fps
Color space : YUV
Chroma subsampling : 4:2:0
Bit depth : 8 bits
Scan type : Progressive
Bits/(Pixel*Frame) : 0.136
Stream size : 1.77 GiB (87%)
Writing library : x264


Audio
ID : 2
Format : AAC
Format/Info : Advanced Audio Codec
Format version : Version 4
Format profile : LC
Format settings, SBR : No
Codec ID : 40
Duration : 1h 25mn
Bit rate mode : Variable
Bit rate : 446 Kbps
Maximum bit rate : 516 Kbps
Channel(s) : 6 channels
Channel positions : Front: L C R, Side: L R, LFE
Sampling rate : 48.0 KHz
Stream size : 274 MiB (13%)


Plot:
The new town sheriff moves into a large creepy old house with his family. It seems that in the town of Salem there's a special house for the sheriff to live in gratis